<svg width="365" height="177" viewBox="0 0 365 177" fill="none" xmlns="http://www.w3.org/2000/svg">
<line x1="273" y1="1" x2="273" y2="176" stroke="#C2CFE0"/>
<line y1="176.5" x2="365" y2="176.5" stroke="#D3D8DD" stroke-miterlimit="16" stroke-dasharray="8 8"/>
<line y1="132.5" x2="365" y2="132.5" stroke="#D3D8DD" stroke-miterlimit="16" stroke-dasharray="8 8"/>
<line y1="88.5" x2="365" y2="88.5" stroke="#D3D8DD" stroke-miterlimit="16" stroke-dasharray="8 8"/>
<line y1="44.5" x2="365" y2="44.5" stroke="#D3D8DD" stroke-miterlimit="16" stroke-dasharray="8 8"/>
<line y1="0.5" x2="365" y2="0.5" stroke="#D3D8DD" stroke-miterlimit="16" stroke-dasharray="8 8"/>
<mask id="mask0_0_1" style="mask-type:alpha" maskUnits="userSpaceOnUse" x="0" y="1" width="365" height="176">
<rect y="1" width="365" height="176" fill="#C4C4C4"/>
</mask>
<g mask="url(#mask0_0_1)">
<path opacity="0.2" d="M59.7189 89.988C30.1852 89.1182 2.10059 129.967 -5.5 147V178H386.5L373 43.4999C343 50.9999 311 35.9999 301.852 35.6264C281.222 35.6264 250.458 78.3902 236.704 100.859C225.412 120.864 211.007 125.141 205.216 124.778C178.288 125.648 157.803 80.9272 150.926 58.4582C144.846 33.2344 138 28.0161 134.639 28.0161C129 27.9999 120.524 35.4092 111.837 60.6326C103.151 85.856 89.3974 92.8867 83.6065 93.2491C75.5067 93.7561 65.8718 89.9878 59.7189 89.988Z" fill="url(#paint0_linear_0_1)"/>
<path d="M59.7189 89.988L59.6895 90.9875C59.6993 90.9878 59.7091 90.988 59.719 90.988L59.7189 89.988ZM83.6065 93.2491L83.5441 92.2511L83.6065 93.2491ZM134.639 28.0161L134.636 29.0161H134.639L134.639 28.0161ZM150.926 58.4582L149.954 58.6925C149.959 58.7121 149.964 58.7316 149.97 58.7509L150.926 58.4582ZM205.216 124.778L205.278 123.78C205.247 123.778 205.215 123.778 205.184 123.779L205.216 124.778ZM236.704 100.859L235.851 100.337C235.845 100.347 235.839 100.358 235.833 100.368L236.704 100.859ZM301.852 35.6264L301.893 34.6272C301.879 34.6266 301.866 34.6264 301.852 34.6264V35.6264ZM-4.58679 147.407C-0.832967 138.995 8.02431 124.62 19.6083 112.47C31.2281 100.283 45.3701 90.5658 59.6895 90.9875L59.7484 88.9884C44.534 88.5403 29.8669 98.8125 18.1608 111.09C6.41888 123.406 -2.56644 137.972 -6.41321 146.592L-4.58679 147.407ZM59.719 90.988C62.6616 90.9879 66.4664 91.8938 70.7274 92.7873C74.911 93.6646 79.4674 94.5101 83.669 94.2472L83.5441 92.2511C79.6458 92.4951 75.3348 91.7099 71.1378 90.8299C67.0182 89.966 62.9291 88.9879 59.7189 88.988L59.719 90.988ZM83.669 94.2472C90.0188 93.8498 104.024 86.3906 112.783 60.9582L110.892 60.307C102.277 85.3215 88.7761 91.9237 83.5441 92.2511L83.669 94.2472ZM112.783 60.9582C117.108 48.3989 121.355 40.3562 125.169 35.4752C129 30.5722 132.27 29.0093 134.636 29.0161L134.642 27.0161C131.369 27.0067 127.581 29.1403 123.593 34.2438C119.588 39.3693 115.253 47.643 110.892 60.307L112.783 60.9582ZM134.639 29.0161C135.804 29.0161 138.094 29.9594 140.924 34.3224C143.728 38.6453 146.926 46.1328 149.954 58.6925L151.898 58.2239C148.845 45.5598 145.581 37.8262 142.602 33.234C139.649 28.682 136.835 27.0161 134.639 27.0161L134.639 29.0161ZM149.97 58.7509C153.428 70.0504 160.305 86.9447 169.722 100.929C174.431 107.921 179.802 114.227 185.735 118.738C191.672 123.252 198.221 126.005 205.248 125.778L205.184 123.779C198.748 123.987 192.638 121.475 186.945 117.146C181.248 112.814 176.019 106.699 171.381 99.8117C162.104 86.0356 155.301 69.3351 151.882 58.1655L149.97 58.7509ZM205.154 125.776C211.408 126.168 226.138 121.613 237.575 101.351L235.833 100.368C224.686 120.116 210.606 124.113 205.278 123.78L205.154 125.776ZM237.557 101.381C244.415 90.1778 255.51 73.9222 267.447 60.481C273.417 53.7589 279.572 47.7695 285.491 43.4683C291.436 39.1487 297.013 36.6264 301.852 36.6264V34.6264C296.376 34.6264 290.372 37.4495 284.316 41.8503C278.234 46.2695 271.971 52.3753 265.952 59.1529C253.911 72.7109 242.747 89.0718 235.851 100.337L237.557 101.381ZM301.811 36.6255C303.951 36.7129 307.528 37.6742 312.338 39.0313C317.085 40.3707 322.91 42.055 329.39 43.492C342.341 46.364 358.021 48.2755 373.243 44.47L372.757 42.5297C357.979 46.2243 342.659 44.3858 329.823 41.5394C323.41 40.1172 317.644 38.4502 312.881 37.1064C308.181 35.7803 304.327 34.7266 301.893 34.6272L301.811 36.6255Z" fill="#109CF1"/>
<circle cx="273" cy="53" r="4" fill="white" stroke="#109CF1" stroke-width="2"/>
</g>
<rect opacity="0.6" x="286" y="41" width="46" height="24" rx="12" fill="#192A3E"/>
<path d="M300.374 50.411V49.234H302.86V57H301.54V50.411H300.374ZM304.099 55.328V54.272L307.96 49.168H309.302V54.228H310.391V55.328H309.302V57H308.037V55.328H304.099ZM308.125 50.664L305.397 54.228H308.125V50.664ZM315.635 51.324C315.503 50.4587 315.052 50.026 314.282 50.026C313.725 50.026 313.307 50.2497 313.028 50.697C312.749 51.137 312.61 51.83 312.61 52.776L312.621 53.15C312.731 52.754 312.969 52.4387 313.336 52.204C313.703 51.9693 314.135 51.852 314.634 51.852C315.397 51.852 315.994 52.0793 316.427 52.534C316.86 52.9887 317.076 53.6303 317.076 54.459C317.076 54.9577 316.977 55.405 316.779 55.801C316.581 56.1897 316.284 56.5013 315.888 56.736C315.492 56.9633 315.004 57.077 314.425 57.077C313.303 57.077 312.533 56.7287 312.115 56.032C311.697 55.3353 311.488 54.3783 311.488 53.161C311.488 51.7677 311.712 50.7263 312.159 50.037C312.606 49.3477 313.34 49.003 314.359 49.003C315.122 49.003 315.705 49.2193 316.108 49.652C316.519 50.0847 316.757 50.642 316.823 51.324H315.635ZM312.731 54.316C312.731 54.7927 312.87 55.1923 313.149 55.515C313.428 55.8303 313.838 55.988 314.381 55.988C314.843 55.988 315.21 55.8523 315.481 55.581C315.76 55.3097 315.899 54.932 315.899 54.448C315.899 53.9273 315.76 53.5277 315.481 53.249C315.202 52.9703 314.825 52.831 314.348 52.831C313.915 52.831 313.538 52.9593 313.215 53.216C312.892 53.4727 312.731 53.8393 312.731 54.316Z" fill="white"/>
<defs>
<linearGradient id="paint0_linear_0_1" x1="190.5" y1="28.0161" x2="190" y2="178" gradientUnits="userSpaceOnUse">
<stop stop-color="#109CF1"/>
<stop offset="1" stop-color="#109CF1" stop-opacity="0"/>
</linearGradient>
</defs>
</svg>

